<?xml version="1.0" encoding="iso-8859-1"?>
<!-- Generator: Adobe Illustrator 19.0.0, SVG Export Plug-In . SVG Version: 6.00 Build 0)  -->
<svg version="1.1" id="Capa_1" xmlns="http://www.w3.org/2000/svg" xmlns:xlink="http://www.w3.org/1999/xlink" x="0px" y="0px"
	 viewBox="0 0 512 512" style="enable-background:new 0 0 512 512;" xml:space="preserve">
<path style="fill:#F9653D;" d="M505.409,425.633c0,20.848-13.023,40.672-34.388,47.835l-94.481,31.721
	c-48.093,16.145-99.876,2.801-134.191-31.669c-5.034-5.065-9.695-10.574-13.902-16.527c-3.08-4.32-5.922-8.868-8.486-13.633
	l-41.644-83.731h-0.01L7.816,16.877C4.467,10.159,8.281,2.086,15.589,0.402l0.444-0.103C21.129-0.88,26.39,1.508,28.87,6.118
	l225.561,420.476c3.276,5.54,7.287,10.346,11.845,14.377c20.207,17.922,50.997,20.538,74.315,4.01l85.251-60.414
	c24.92-17.664,59.7-9.271,73.83,17.809C503.579,409.86,505.409,417.819,505.409,425.633z"/>
<g>
	<path style="fill:#EF5330;" d="M235.682,426.522c0,10.966-2.605,21.313-7.235,30.47c-3.08-4.32-5.922-8.868-8.486-13.633
		l-41.644-83.731C210.803,364.599,235.682,392.651,235.682,426.522z"/>
	<path style="fill:#EF5330;" d="M504.84,433.157c-2.718,17.954-15.049,34.016-33.819,40.31l-94.481,31.721
		c-48.093,16.145-99.876,2.801-134.191-31.669c-8.703-8.744-16.279-18.842-22.388-30.16L7.811,16.873
		c-3.34-6.714,0.471-14.784,7.777-16.471l0,0l211.091,424.352c6.109,11.318,13.685,21.416,22.388,30.16
		c34.315,34.47,86.098,47.814,134.191,31.669l94.481-31.721C489.626,450.883,498.928,442.976,504.84,433.157z"/>
</g>
<path style="fill:#FFDEC5;" d="M505.41,425.634c0,2.526-0.196,5.042-0.567,7.527c-2.722,17.951-15.054,34.016-33.82,40.305
	l-11.528,3.867l-14.91,5.011l-10.868,3.65l-15.879,5.331l-37.356,12.548l-3.939,1.32c-3.671,1.227-7.362,2.289-11.064,3.176
	c-13.827,3.341-27.829,4.331-41.512,3.155c-5.155-0.433-10.27-1.175-15.301-2.217c-2.021-0.412-4.032-0.866-6.022-1.382
	c-5.269-1.351-10.445-3.021-15.497-5.011c-16.642-6.537-31.943-16.487-44.801-29.396l10.806-14.683l13.126-17.869
	c4.898,4.351,10.435,7.805,16.322,10.29c4.877,2.062,10.012,3.475,15.24,4.186c5.331,0.742,10.765,0.763,16.147,0.031
	c5.166-0.691,10.29-2.062,15.24-4.155c1.609-0.68,3.207-1.433,4.774-2.268c2.248-1.206,4.454-2.557,6.589-4.073l6.31-4.475
	l6.383-4.516l12.817-9.084l28.18-19.972l12.621-8.939l18.941-13.425c2.114-1.495,4.289-2.794,6.527-3.929
	c24.127-12.187,54.369-3.042,67.31,21.736C503.575,409.858,505.41,417.818,505.41,425.634z"/>
<path style="fill:#FFD5B3;" d="M504.84,433.157c-2.718,17.954-15.049,34.016-33.819,40.31l-94.481,31.721
	c-48.093,16.145-99.876,2.801-134.191-31.669l10.801-14.687c34.253,31.545,83.886,43.266,130.109,27.752l94.481-31.721
	C489.626,450.883,498.928,442.976,504.84,433.157z"/>
<path style="fill:#11B3C2;" d="M505.409,425.633c0,20.848-13.023,40.672-34.388,47.835l-38.656-92.827
	c24.134-12.186,54.377-3.049,67.308,21.737C503.579,409.86,505.409,417.819,505.409,425.633z"/>
<g>
	<path style="fill:#FFD5B3;" d="M302.646,507.925c-5.269-1.351-10.445-3.021-15.497-5.011l-4.939-48.327
		c-0.124-1.165,0.031-2.299,0.392-3.33c4.877,2.062,10.012,3.475,15.24,4.186l5.063,49.565
		C303.007,506.018,302.914,506.997,302.646,507.925z"/>
	<path style="fill:#FFD5B3;" d="M459.495,477.333l-14.91,5.011l-50.307-75.414l12.621-8.939c0.041,0.052,0.082,0.113,0.124,0.175
		l51.586,77.342C458.99,476.085,459.289,476.704,459.495,477.333z"/>
	<path style="fill:#FFD5B3;" d="M433.718,485.994l-15.879,5.331l-63.268-53.916c-0.505-0.433-0.938-0.907-1.289-1.423l12.817-9.084
		l65.299,55.669C432.512,483.519,433.285,484.705,433.718,485.994z"/>
	<path style="fill:#FFD5B3;" d="M380.483,503.873l-3.939,1.32c-3.671,1.227-7.362,2.289-11.064,3.176l-31.479-59.319
		c2.248-1.206,4.454-2.557,6.589-4.073l6.31-4.475c0.186,0.268,0.361,0.557,0.526,0.856l32.531,61.288
		C380.174,503.048,380.349,503.461,380.483,503.873z"/>
	<path style="fill:#FFD5B3;" d="M329.619,454.628l-5.63,56.782c0,0.041-0.01,0.072-0.021,0.113
		c-5.155-0.433-10.27-1.175-15.301-2.217l5.32-53.833c5.166-0.691,10.29-2.062,15.24-4.155
		C329.588,452.349,329.733,453.473,329.619,454.628z"/>
</g>
<path style="fill:#11B3C2;" d="M211.78,508.669H107.703c-4.132,0-7.482-3.35-7.482-7.482v-19.725c0-4.132,3.35-7.482,7.482-7.482
	H211.78c4.132,0,7.482,3.35,7.482,7.482v19.725C219.261,505.319,215.912,508.669,211.78,508.669z"/>
<circle style="fill:#0D8094;" cx="168.02" cy="426.52" r="51.24"/>
<path style="fill:#F4DC64;" d="M173.311,404.493l4.933,9.995l11.03,1.603c4.841,0.703,6.774,6.653,3.271,10.068l-7.982,7.78
	l1.884,10.986c0.827,4.822-4.234,8.499-8.564,6.222l-9.866-5.187l-9.866,5.187c-4.33,2.277-9.391-1.4-8.564-6.222l1.884-10.986
	l-7.982-7.78c-3.503-3.415-1.57-9.364,3.271-10.068l11.03-1.603l4.933-9.995C164.89,400.106,171.146,400.106,173.311,404.493z"/>
<g>
</g>
<g>
</g>
<g>
</g>
<g>
</g>
<g>
</g>
<g>
</g>
<g>
</g>
<g>
</g>
<g>
</g>
<g>
</g>
<g>
</g>
<g>
</g>
<g>
</g>
<g>
</g>
<g>
</g>
</svg>
