<svg id="Capa_1" enable-background="new 0 0 487.219 487.219" height="512" viewBox="0 0 487.219 487.219" width="512" xmlns="http://www.w3.org/2000/svg"><g><g id="XMLID_341_"><g><path d="m467.295 397.495-32.38-14.85-55.43-55.44c-.97-.96-1.13-2.47-.4-3.63 19.11-30.58 28.19-66.21 27.46-102.64l-29.017-36.409-187.292 156.39 30.698 65.629c36.43.73 72.06-8.35 102.64-27.46 1.16-.73 2.67-.57 3.63.4l55.44 55.43 14.85 32.38c9.92 21.63 38.36 26.74 55.19 9.92l24.53-24.53c16.821-16.83 11.711-45.271-9.919-55.19z" fill="#fdd79b"/><path d="m406.545 220.935-185.61 185.61c-54.11-1.06-109.96-23.76-153.54-67.34-83.5-83.51-90.35-212.05-15.29-287.1 75.05-75.06 203.59-68.21 287.1 15.29 43.58 43.58 66.28 99.43 67.34 153.54z" fill="#fd8087"/></g></g><path d="m11.171 249.039c10.881 32.496 29.67 63.609 56.224 90.166 23.045 23.045 49.523 40.248 77.359 51.503 3.075-2.418 6.026-5.033 8.835-7.842 18.465-18.466 28.634-43.016 28.634-69.129s-10.169-50.663-28.634-69.129c-18.466-18.465-43.016-28.634-69.129-28.634-26.114 0-50.664 10.169-69.13 28.634-1.439 1.439-2.822 2.92-4.159 4.431z" fill="#fe646f"/><circle cx="84.459" cy="313.737" fill="#fef056" r="77.763"/><path d="m70.523 343.017c-28.695-28.695-30.25-74.233-4.718-104.784-13.309 3.277-25.932 10.118-36.332 20.517-30.368 30.368-30.368 79.605 0 109.973s79.605 30.368 109.973 0c1.674-1.674 3.263-3.422 4.752-5.204-25.557 6.293-53.707-.533-73.675-20.502z" fill="#fee903"/></g></svg>