<?xml version="1.0" encoding="iso-8859-1"?>
<!-- Generator: Adobe Illustrator 19.0.0, SVG Export Plug-In . SVG Version: 6.00 Build 0)  -->
<svg version="1.1" id="Capa_1" xmlns="http://www.w3.org/2000/svg" xmlns:xlink="http://www.w3.org/1999/xlink" x="0px" y="0px"
	 viewBox="0 0 512 512" style="enable-background:new 0 0 512 512;" xml:space="preserve">
<path style="fill:#303C42;" d="M256,0C114.844,0,0,114.844,0,256s114.844,256,256,256s256-114.844,256-256S397.156,0,256,0z"/>
<g>
	<path style="fill:#FFCA28;" d="M490.667,256c0,17.168-1.97,33.865-5.487,49.993c-14.279-79.163-55.85-157.911-110.585-206.408
		c13.529-10.844,25.06-19.02,31.762-23.533C457.829,119.135,490.667,183.784,490.667,256z"/>
	<path style="fill:#FFCA28;" d="M413.518,429.436c-16.701,15.181-35.547,27.949-56.094,37.854
		c-3.482-42.646-19.513-159.642-89.876-215.522c3.906-27.043,16.544-52.775,33.016-75.943
		C373.466,250.328,415.688,372.965,413.518,429.436z"/>
	<path style="fill:#FFCA28;" d="M64.763,391.521c-12.48-17.559-22.522-36.893-29.833-57.555
		c42.773,19.82,108.255,32.93,174.122,32.93c35.345,0,70.523-3.99,102.319-12.434c7.73,20.788,13.215,41.842,17.003,60.855
		C250.156,442.77,143.82,433.477,64.763,391.521z"/>
</g>
<g>
	<path style="fill:#1565C0;" d="M22.237,238.163c28.813,13.639,96.828,42.025,164.294,42.025c23.117,0,46.07-3.612,67.398-12.04
		c21.447,16.904,37.401,40.701,49.221,66.534c-101.225,25.958-228.934,1.01-276.465-29.21c-3.441-15.966-5.353-32.492-5.353-49.471
		C21.333,249.979,21.789,244.07,22.237,238.163z"/>
	<path style="fill:#1565C0;" d="M246.556,248.121c-25.372,10.132-53.971,12.052-82.267,9.372
		C192.417,156.858,277.862,58.736,327.805,32.671c21.749,7.01,42.121,17.081,60.596,29.758
		C353.32,86.671,259.777,159.121,246.556,248.121z"/>
</g>
<path style="fill:#FFCA28;" d="M298.878,25.443c-59.202,41.763-131.38,138.431-155.935,229.263
	c-21.948-3.719-42.986-9.53-61.387-15.783C96.96,157.419,158.516,69.861,234.41,22.427c7.12-0.654,14.302-1.094,21.59-1.094
	C270.66,21.333,284.954,22.858,298.878,25.443z"/>
<g>
	<path style="fill:#1565C0;" d="M184.811,32.445C123.344,84.389,75.884,159.813,61.243,231.503
		c-16.121-6.28-28.94-12.161-36.21-15.714C40.081,129.184,102.561,58.701,184.811,32.445z"/>
	<path style="fill:#1565C0;" d="M98.757,429.686c41.725,14.911,87.419,22.71,131.681,22.71c35.944,0,70.672-5.379,101.68-15.742
		c2.643,17.195,3.967,31.315,4.53,39.434c-25.194,9.264-52.279,14.579-80.647,14.579C195.48,490.667,140.419,467.44,98.757,429.686z
		"/>
</g>
<path style="opacity:0.1;enable-background:new    ;" d="M98.757,429.686c41.725,14.911,87.419,22.71,131.681,22.71
	c35.944,0,70.672-5.379,101.68-15.742c2.643,17.195,3.967,31.315,4.53,39.434c-25.194,9.264-52.279,14.579-80.647,14.579
	C195.48,490.667,140.419,467.44,98.757,429.686z"/>
<path style="fill:#1565C0;" d="M434.221,408.255c-6.629-72.152-54.242-182.883-120.572-249.521
	c14.117-17.056,29.581-32.302,44.13-45.069c62.893,54.036,108.034,150.793,111.203,240.25
	C459.872,373.65,448.193,391.926,434.221,408.255z"/>
<path style="opacity:0.1;enable-background:new    ;" d="M447.267,195.842c17.824,34.462,31.07,72.215,37.913,110.151
	c3.517-16.129,5.487-32.826,5.487-49.993c0-56.889-20.59-108.895-54.402-149.548C443.831,130.069,448,155.204,448,181.333
	C448,186.232,447.549,191.016,447.267,195.842z"/>
<path style="opacity:0.1;enable-background:new    ;" d="M342.807,382.544c9.31,34.762,13.132,66.543,14.617,84.746
	c20.547-9.905,39.393-22.673,56.094-37.854c0.893-23.237-5.841-57.733-19.026-95.411
	C379.698,352.585,362.306,368.938,342.807,382.544z"/>
<path style="opacity:0.1;enable-background:new    ;" d="M56.561,378.083c2.743,4.475,5.165,9.165,8.202,13.438
	c79.057,41.956,185.393,51.249,263.611,23.797c-1.313-6.59-3.124-13.646-4.867-20.63c-35.691,20.262-76.866,31.979-120.84,31.979
	C147.849,426.667,97.405,408.466,56.561,378.083z"/>
<path style="opacity:0.1;enable-background:new    ;" d="M434.221,408.255c13.971-16.329,25.651-34.605,34.762-54.34
	c-1.402-39.596-11.393-80.453-27.142-118.572c-6.28,27.913-17.332,53.965-32.23,77.38
	C422.986,347.132,431.676,380.544,434.221,408.255z"/>
<linearGradient id="SVGID_1_" gradientUnits="userSpaceOnUse" x1="-45.5784" y1="639.555" x2="-23.8278" y2="629.4138" gradientTransform="matrix(21.3333 0 0 -21.3333 996.3334 13791.667)">
	<stop  offset="0" style="stop-color:#FFFFFF;stop-opacity:0.2"/>
	<stop  offset="1" style="stop-color:#FFFFFF;stop-opacity:0"/>
</linearGradient>
<path style="fill:url(#SVGID_1_);" d="M256,0C114.844,0,0,114.844,0,256s114.844,256,256,256s256-114.844,256-256S397.156,0,256,0z"
	/>
<g>
</g>
<g>
</g>
<g>
</g>
<g>
</g>
<g>
</g>
<g>
</g>
<g>
</g>
<g>
</g>
<g>
</g>
<g>
</g>
<g>
</g>
<g>
</g>
<g>
</g>
<g>
</g>
<g>
</g>
</svg>
